<svg height="1em" style="flex:none;line-height:1" viewBox="0 0 24 24" width="1em" xmlns="http://www.w3.org/2000/svg">
  <title>Retry</title>
  <!-- Badge border -->
  <rect x="1" y="7" width="22" height="10" rx="2" stroke="#ffffff" stroke-width="1.2" fill="none"/>
  <!-- R -->
  <path d="M3.5 9h1.8c.9 0 1.4.5 1.4 1.2 0 .5-.3.9-.8 1.1l1 1.7h-1.2l-.9-1.5h-.5v1.5h-1V9zm1 1v1.1h.7c.4 0 .6-.2.6-.5s-.2-.6-.6-.6h-.7z" fill="#ffffff"/>
  <!-- E -->
  <path d="M7.5 9h2.8v.9h-1.8v.8h1.6v.8h-1.6v.8h1.9v.9h-2.9V9z" fill="#ffffff"/>
  <!-- T -->
  <path d="M11 9h3v.9h-1v3.1h-1v-3.1h-1V9z" fill="#ffffff"/>
  <!-- R -->
  <path d="M14.5 9h1.8c.9 0 1.4.5 1.4 1.2 0 .5-.3.9-.8 1.1l1 1.7h-1.2l-.9-1.5h-.5v1.5h-1V9zm1 1v1.1h.7c.4 0 .6-.2.6-.5s-.2-.6-.6-.6h-.7z" fill="#ffffff"/>
  <!-- Y -->
  <path d="M18.5 9l1 1.6 1-1.6h1.2l-1.6 2.5v1.5h-1v-1.5L17.5 9h1z" fill="#ffffff"/>
</svg>
